G04*
G04 #@! TF.GenerationSoftware,Altium Limited,Altium Designer,23.0.1 (38)*
G04*
G04 Layer_Color=32896*
%FSLAX25Y25*%
%MOIN*%
G70*
G04*
G04 #@! TF.SameCoordinates,5660EF31-3C45-4B7C-B7D5-7F86080B64AF*
G04*
G04*
G04 #@! TF.FilePolarity,Positive*
G04*
G01*
G75*
%ADD11C,0.00394*%
%ADD30C,0.01575*%
%ADD31C,0.01181*%
%ADD32C,0.00787*%
D11*
X27756Y135925D02*
X34449D01*
X27756D02*
Y146752D01*
X34449Y135925D02*
Y146752D01*
X27756D02*
X34449D01*
X78937Y165453D02*
X85630D01*
X78937D02*
Y176279D01*
X85630Y165453D02*
Y176279D01*
X78937D02*
X85630D01*
X106544Y135925D02*
X113237D01*
X106544D02*
Y146752D01*
X113237Y135925D02*
Y146752D01*
X106544D02*
X113237D01*
X134941Y89567D02*
Y96260D01*
X124114Y89567D02*
X134941D01*
X124114Y96260D02*
X134941D01*
X124114Y89567D02*
Y96260D01*
X134941Y100591D02*
Y107283D01*
X124114Y100591D02*
X134941D01*
X124114Y107283D02*
X134941D01*
X124114Y100591D02*
Y107283D01*
X6791Y95079D02*
Y101772D01*
X17618D01*
X6791Y95079D02*
X17618D01*
Y101772D01*
X65157Y24508D02*
X71850D01*
X65157D02*
Y35335D01*
X71850Y24508D02*
Y35335D01*
X65157D02*
X71850D01*
X55315Y24508D02*
X62008D01*
X55315D02*
Y35335D01*
X62008Y24508D02*
Y35335D01*
X55315D02*
X62008D01*
X75000Y24508D02*
X81693D01*
X75000D02*
Y35335D01*
X81693Y24508D02*
Y35335D01*
X75000D02*
X81693D01*
X84842Y24508D02*
X91535D01*
X84842D02*
Y35335D01*
X91535Y24508D02*
Y35335D01*
X84842D02*
X91535D01*
D30*
X55389Y135110D02*
G03*
X83340Y135060I13902J-41015D01*
G01*
X83268D02*
Y145472D01*
X79134D02*
X83268D01*
X55413Y135039D02*
Y145452D01*
X56422D02*
X58440D01*
X59449D01*
X55413D02*
X56422D01*
D31*
X50098Y126279D02*
X59941D01*
X55315Y121260D02*
Y131102D01*
D32*
X83071Y2362D02*
Y11220D01*
X62008D02*
X83071D01*
X62008Y2362D02*
Y11220D01*
Y2362D02*
X83071D01*
M02*
