G04*
G04 #@! TF.GenerationSoftware,Altium Limited,Altium Designer,23.0.1 (38)*
G04*
G04 Layer_Color=65535*
%FSLAX25Y25*%
%MOIN*%
G70*
G04*
G04 #@! TF.SameCoordinates,5660EF31-3C45-4B7C-B7D5-7F86080B64AF*
G04*
G04*
G04 #@! TF.FilePolarity,Positive*
G04*
G01*
G75*
%ADD10C,0.01968*%
%ADD11C,0.00394*%
D10*
X55512Y31496D02*
G03*
X55512Y31496I-394J0D01*
G01*
X75117Y53387D02*
G03*
X75197Y53150I-314J-238D01*
G01*
X132108Y98753D02*
G03*
X132283Y98425I-218J-328D01*
G01*
X112598Y118110D02*
G03*
X112598Y118110I-394J0D01*
G01*
X88976Y98425D02*
G03*
X88976Y98425I-394J0D01*
G01*
X114567Y15748D02*
G03*
X114567Y15748I-394J0D01*
G01*
X112598Y76772D02*
G03*
X112598Y76772I-394J0D01*
G01*
X146063Y53150D02*
G03*
X146063Y53150I-394J0D01*
G01*
X394D02*
G03*
X394Y53150I-394J0D01*
G01*
X31890Y15748D02*
G03*
X31890Y15748I-394J0D01*
G01*
X112598Y53150D02*
G03*
X112598Y53150I-394J0D01*
G01*
X92520Y31496D02*
G03*
X92520Y31496I-394J0D01*
G01*
X35827Y53150D02*
G03*
X35827Y53150I-394J0D01*
G01*
X29921Y77165D02*
G03*
X29921Y77165I-394J0D01*
G01*
X71260Y118110D02*
G03*
X71260Y118110I-394J0D01*
G01*
X51575Y98425D02*
G03*
X51575Y98425I-394J0D01*
G01*
X8268D02*
G03*
X8268Y98425I-394J0D01*
G01*
X29921Y118110D02*
G03*
X29921Y118110I-394J0D01*
G01*
X112598Y137795D02*
G03*
X112598Y137795I-394J0D01*
G01*
X24016D02*
G03*
X24016Y137795I-394J0D01*
G01*
X88861Y163664D02*
G03*
X88976Y163386I-278J-278D01*
G01*
X49606D02*
G03*
X49606Y163386I-394J0D01*
G01*
D11*
X76778Y169291D02*
G03*
X76778Y169291I-7880J0D01*
G01*
X57093Y139764D02*
G03*
X57093Y139764I-7880J0D01*
G01*
X98038D02*
G03*
X98038Y139764I-7880J0D01*
G01*
X37408Y98425D02*
G03*
X37408Y98425I-7880J0D01*
G01*
X78746D02*
G03*
X78746Y98425I-7880J0D01*
G01*
X120085Y98543D02*
G03*
X120085Y98543I-7880J0D01*
G01*
X25597Y54331D02*
G03*
X25597Y54331I-7880J0D01*
G01*
X62998Y53150D02*
G03*
X62998Y53150I-7880J0D01*
G01*
X100400D02*
G03*
X100400Y53150I-7880J0D01*
G01*
X137801D02*
G03*
X137801Y53150I-7880J0D01*
G01*
X73524Y171309D02*
Y173376D01*
X72490Y172343D02*
X74557D01*
X53839Y141781D02*
Y143848D01*
X52805Y142815D02*
X54872D01*
X94784Y141781D02*
Y143848D01*
X93750Y142815D02*
X95817D01*
X25443Y103051D02*
X27510D01*
X26476Y102018D02*
Y104085D01*
X75492Y100443D02*
Y102510D01*
X74459Y101476D02*
X76526D01*
X114222Y93917D02*
X116289D01*
X115256Y92884D02*
Y94951D01*
X13091Y50246D02*
Y52313D01*
X12057Y51279D02*
X14124D01*
X50492Y49065D02*
Y51132D01*
X49459Y50098D02*
X51526D01*
X87894Y49065D02*
Y51132D01*
X86860Y50098D02*
X88927D01*
X125295Y49065D02*
Y51132D01*
X124262Y50098D02*
X126329D01*
M02*
