G04*
G04 #@! TF.GenerationSoftware,Altium Limited,Altium Designer,23.0.1 (38)*
G04*
G04 Layer_Color=2752767*
%FSLAX25Y25*%
%MOIN*%
G70*
G04*
G04 #@! TF.SameCoordinates,5660EF31-3C45-4B7C-B7D5-7F86080B64AF*
G04*
G04*
G04 #@! TF.FilePolarity,Positive*
G04*
G01*
G75*
%ADD33C,0.00500*%
%ADD34C,0.00667*%
D33*
X69291Y141307D02*
X67291Y145307D01*
X71291D01*
X69291Y141307D01*
X66898Y172291D02*
Y176291D01*
X70898D01*
Y172291D01*
X66898D01*
Y162291D02*
Y166291D01*
X70898D01*
Y162291D01*
X66898D01*
X47213Y142764D02*
Y146764D01*
X51213D01*
Y142764D01*
X47213D01*
Y132764D02*
Y136764D01*
X51213D01*
Y132764D01*
X47213D01*
X88157Y142764D02*
Y146764D01*
X92158D01*
Y142764D01*
X88157D01*
Y132764D02*
Y136764D01*
X92158D01*
Y132764D01*
X88157D01*
X22528Y96425D02*
Y100425D01*
X26528D01*
Y96425D01*
X22528D01*
X32528D02*
Y100425D01*
X36528D01*
Y96425D01*
X32528D01*
X68866Y101425D02*
Y105425D01*
X72866D01*
Y101425D01*
X68866D01*
Y91425D02*
Y95425D01*
X72866D01*
Y91425D01*
X68866D01*
X115205Y96543D02*
Y100543D01*
X119205D01*
Y96543D01*
X115205D01*
X105205D02*
Y100543D01*
X109205D01*
Y96543D01*
X105205D01*
X15717Y47331D02*
Y51331D01*
X19716D01*
Y47331D01*
X15717D01*
Y57331D02*
Y61331D01*
X19716D01*
Y57331D01*
X15717D01*
X53118Y46150D02*
Y50150D01*
X57118D01*
Y46150D01*
X53118D01*
Y56150D02*
Y60150D01*
X57118D01*
Y56150D01*
X53118D01*
X90520Y46150D02*
Y50150D01*
X94520D01*
Y46150D01*
X90520D01*
Y56150D02*
Y60150D01*
X94520D01*
Y56150D01*
X90520D01*
X127921Y46150D02*
Y50150D01*
X131921D01*
Y46150D01*
X127921D01*
Y56150D02*
Y60150D01*
X131921D01*
Y56150D01*
X127921D01*
X68685Y185221D02*
Y184221D01*
X70685D01*
Y185221D01*
X71685D01*
Y187221D01*
X70685D01*
Y188221D01*
X68685D01*
Y187221D01*
X67685D01*
Y185221D01*
X68685D01*
X98114Y75406D02*
X99114Y76406D01*
X100114D01*
X99114Y77406D01*
X100114Y78406D01*
X99114D01*
X98114Y79406D01*
X97114Y78406D01*
X96114D01*
X97114Y77406D01*
X96114Y76406D01*
X97114D01*
X98114Y75406D01*
X40748Y75264D02*
X41748Y76264D01*
X42748D01*
X41748Y77264D01*
X42748Y78264D01*
X41748D01*
X40748Y79264D01*
X39748Y78264D01*
X38748D01*
X39748Y77264D01*
X38748Y76264D01*
X39748D01*
X40748Y75264D01*
X69436Y125001D02*
X70436Y126001D01*
X71436D01*
X70436Y127001D01*
X71436Y128001D01*
X70436D01*
X69436Y129001D01*
X68436Y128001D01*
X67436D01*
X68436Y127001D01*
X67436Y126001D01*
X68436D01*
X69436Y125001D01*
X76150Y5480D02*
Y9480D01*
X80150D01*
Y5480D01*
X76150D01*
X64339D02*
Y9480D01*
X68339D01*
Y5480D01*
X64339D01*
D34*
X71291Y64567D02*
G03*
X71291Y64567I-2000J0D01*
G01*
M02*
