G04*
G04 #@! TF.GenerationSoftware,Altium Limited,Altium Designer,23.0.1 (38)*
G04*
G04 Layer_Color=4660084*
%FSLAX25Y25*%
%MOIN*%
G70*
G04*
G04 #@! TF.SameCoordinates,5660EF31-3C45-4B7C-B7D5-7F86080B64AF*
G04*
G04*
G04 #@! TF.FilePolarity,Positive*
G04*
G01*
G75*
%ADD11C,0.00394*%
%ADD31C,0.01181*%
%ADD32C,0.00787*%
D11*
X78654Y169291D02*
G03*
X78654Y169291I-9757J0D01*
G01*
X58969Y139764D02*
G03*
X58969Y139764I-9757J0D01*
G01*
X99914D02*
G03*
X99914Y139764I-9757J0D01*
G01*
X39284Y98425D02*
G03*
X39284Y98425I-9757J0D01*
G01*
X80623D02*
G03*
X80623Y98425I-9757J0D01*
G01*
X121961Y98543D02*
G03*
X121961Y98543I-9757J0D01*
G01*
X27473Y54331D02*
G03*
X27473Y54331I-9757J0D01*
G01*
X64875Y53150D02*
G03*
X64875Y53150I-9757J0D01*
G01*
X102276D02*
G03*
X102276Y53150I-9757J0D01*
G01*
X139678D02*
G03*
X139678Y53150I-9757J0D01*
G01*
X27756Y135925D02*
X34449D01*
X27756D02*
Y146752D01*
X34449Y135925D02*
Y146752D01*
X27756D02*
X34449D01*
X31102Y141339D02*
Y142618D01*
Y141339D02*
X32382D01*
X31102Y140059D02*
Y141339D01*
X29823D02*
X31102D01*
X78937Y165453D02*
X85630D01*
X78937D02*
Y176279D01*
X85630Y165453D02*
Y176279D01*
X78937D02*
X85630D01*
X82284Y170866D02*
Y172146D01*
Y170866D02*
X83563D01*
X82284Y169587D02*
Y170866D01*
X81004D02*
X82284D01*
X106544Y135925D02*
X113237D01*
X106544D02*
Y146752D01*
X113237Y135925D02*
Y146752D01*
X106544D02*
X113237D01*
X109890Y141339D02*
Y142618D01*
Y141339D02*
X111170D01*
X109890Y140059D02*
Y141339D01*
X108611D02*
X109890D01*
X134941Y89567D02*
Y96260D01*
X124114Y89567D02*
X134941D01*
X124114Y96260D02*
X134941D01*
X124114Y89567D02*
Y96260D01*
X128248Y92913D02*
X129528D01*
Y94193D01*
Y92913D02*
X130807D01*
X129528Y91634D02*
Y92913D01*
X134941Y100591D02*
Y107283D01*
X124114Y100591D02*
X134941D01*
X124114Y107283D02*
X134941D01*
X124114Y100591D02*
Y107283D01*
X128248Y103937D02*
X129528D01*
Y105217D01*
Y103937D02*
X130807D01*
X129528Y102657D02*
Y103937D01*
X6791Y95079D02*
Y101772D01*
X17618D01*
X6791Y95079D02*
X17618D01*
Y101772D01*
X12205Y98425D02*
X13484D01*
X12205Y97146D02*
Y98425D01*
X10925D02*
X12205D01*
Y99705D01*
X65157Y24508D02*
X71850D01*
X65157D02*
Y35335D01*
X71850Y24508D02*
Y35335D01*
X65157D02*
X71850D01*
X68504Y29921D02*
Y31201D01*
Y29921D02*
X69783D01*
X68504Y28642D02*
Y29921D01*
X67224D02*
X68504D01*
X55315Y24508D02*
X62008D01*
X55315D02*
Y35335D01*
X62008Y24508D02*
Y35335D01*
X55315D02*
X62008D01*
X58661Y29921D02*
Y31201D01*
Y29921D02*
X59941D01*
X58661Y28642D02*
Y29921D01*
X57382D02*
X58661D01*
X75000Y24508D02*
X81693D01*
X75000D02*
Y35335D01*
X81693Y24508D02*
Y35335D01*
X75000D02*
X81693D01*
X78346Y29921D02*
Y31201D01*
Y29921D02*
X79626D01*
X78346Y28642D02*
Y29921D01*
X77067D02*
X78346D01*
X84842Y24508D02*
X91535D01*
X84842D02*
Y35335D01*
X91535Y24508D02*
Y35335D01*
X84842D02*
X91535D01*
X88189Y29921D02*
Y31201D01*
Y29921D02*
X89468D01*
X88189Y28642D02*
Y29921D01*
X86909D02*
X88189D01*
D31*
X19094Y152953D02*
X118898D01*
Y44980D02*
Y152953D01*
X19094Y151083D02*
Y152953D01*
Y44980D02*
X118898D01*
X19094D02*
Y151083D01*
X69291Y94095D02*
X77165D01*
X69291D02*
Y101969D01*
X61417Y94095D02*
X69291D01*
Y86221D02*
Y94095D01*
D32*
X55020Y18209D02*
X89370D01*
X55020Y-5217D02*
Y18209D01*
Y-5217D02*
X89370D01*
Y18209D01*
X69095Y7087D02*
X71260D01*
Y9252D01*
Y7087D02*
X73425D01*
X71260Y4921D02*
Y7087D01*
X65551Y169291D02*
X68898D01*
Y172638D01*
Y169291D02*
X72244D01*
X68898Y165945D02*
Y169291D01*
X45866Y139764D02*
X49213D01*
Y143110D01*
Y139764D02*
X52559D01*
X49213Y136417D02*
Y139764D01*
X86811D02*
X90158D01*
Y143110D01*
Y139764D02*
X93504D01*
X90158Y136417D02*
Y139764D01*
X29528Y95079D02*
Y98425D01*
X26181D02*
X29528D01*
Y101772D01*
Y98425D02*
X32874D01*
X67520D02*
X70866D01*
Y101772D01*
Y98425D02*
X74213D01*
X70866Y95079D02*
Y98425D01*
X112205Y98543D02*
Y101890D01*
Y98543D02*
X115551D01*
X112205Y95197D02*
Y98543D01*
X108858D02*
X112205D01*
X17717Y54331D02*
X21063D01*
X17717Y50984D02*
Y54331D01*
X14370D02*
X17717D01*
Y57677D01*
X55118Y53150D02*
X58465D01*
X55118Y49803D02*
Y53150D01*
X51772D02*
X55118D01*
Y56496D01*
X92520Y53150D02*
X95866D01*
X92520Y49803D02*
Y53150D01*
X89173D02*
X92520D01*
Y56496D01*
X129921Y53150D02*
X133268D01*
X129921Y49803D02*
Y53150D01*
X126575D02*
X129921D01*
Y56496D01*
M02*
