G04*
G04 #@! TF.GenerationSoftware,Altium Limited,Altium Designer,23.0.1 (38)*
G04*
G04 Layer_Physical_Order=1*
G04 Layer_Color=255*
%FSLAX25Y25*%
%MOIN*%
G70*
G04*
G04 #@! TF.SameCoordinates,5660EF31-3C45-4B7C-B7D5-7F86080B64AF*
G04*
G04*
G04 #@! TF.FilePolarity,Positive*
G04*
G01*
G75*
%ADD15C,0.09843*%
G04:AMPARAMS|DCode=16|XSize=157.48mil|YSize=118.11mil|CornerRadius=29.53mil|HoleSize=0mil|Usage=FLASHONLY|Rotation=180.000|XOffset=0mil|YOffset=0mil|HoleType=Round|Shape=RoundedRectangle|*
%AMROUNDEDRECTD16*
21,1,0.15748,0.05906,0,0,180.0*
21,1,0.09843,0.11811,0,0,180.0*
1,1,0.05906,-0.04921,0.02953*
1,1,0.05906,0.04921,0.02953*
1,1,0.05906,0.04921,-0.02953*
1,1,0.05906,-0.04921,-0.02953*
%
%ADD16ROUNDEDRECTD16*%
G04:AMPARAMS|DCode=17|XSize=118.11mil|YSize=78.74mil|CornerRadius=19.68mil|HoleSize=0mil|Usage=FLASHONLY|Rotation=180.000|XOffset=0mil|YOffset=0mil|HoleType=Round|Shape=RoundedRectangle|*
%AMROUNDEDRECTD17*
21,1,0.11811,0.03937,0,0,180.0*
21,1,0.07874,0.07874,0,0,180.0*
1,1,0.03937,-0.03937,0.01968*
1,1,0.03937,0.03937,0.01968*
1,1,0.03937,0.03937,-0.01968*
1,1,0.03937,-0.03937,-0.01968*
%
%ADD17ROUNDEDRECTD17*%
%ADD18C,0.05118*%
%ADD19C,0.08661*%
%ADD20C,0.05512*%
G36*
X140111Y124131D02*
X139920Y123669D01*
X124016D01*
X123395Y123546D01*
X122869Y123194D01*
X122629Y122835D01*
X122441D01*
X122554Y122722D01*
X122518Y122668D01*
X122394Y122047D01*
X122518Y121427D01*
X122869Y120900D01*
X164914Y78855D01*
X164723Y78393D01*
X134252D01*
X133631Y78270D01*
X133105Y77918D01*
X132865Y77559D01*
X132677D01*
X132790Y77446D01*
X132754Y77392D01*
X132630Y76772D01*
X132754Y76151D01*
X133105Y75625D01*
X175938Y32792D01*
X175747Y32330D01*
X118898D01*
X118277Y32207D01*
X117751Y31855D01*
X117511Y31496D01*
X116929D01*
X117349Y31076D01*
X117276Y30709D01*
X117399Y30088D01*
X117751Y29562D01*
X145229Y2084D01*
X145038Y1622D01*
X4568D01*
X4377Y2084D01*
X31855Y29562D01*
X32207Y30088D01*
X32330Y30709D01*
X32257Y31076D01*
X32677Y31496D01*
X32096D01*
X31855Y31855D01*
X31329Y32207D01*
X30709Y32330D01*
X-27715D01*
X-27906Y32792D01*
X14926Y75625D01*
X15278Y76151D01*
X15401Y76772D01*
X15278Y77392D01*
X15242Y77446D01*
X16142Y78347D01*
X14015D01*
X13780Y78393D01*
X-22991D01*
X-23182Y78855D01*
X18863Y120900D01*
X19215Y121427D01*
X19338Y122047D01*
X19265Y122415D01*
X19685Y122835D01*
X19103D01*
X18863Y123194D01*
X18337Y123546D01*
X17717Y123669D01*
X-550D01*
X-741Y124131D01*
X63715Y188587D01*
X64139Y188304D01*
X63991Y187948D01*
X63764Y186804D01*
Y185637D01*
X63991Y184493D01*
X64438Y183416D01*
X65086Y182446D01*
X65911Y181621D01*
X66880Y180973D01*
X67958Y180527D01*
X69102Y180299D01*
X70268D01*
X71412Y180527D01*
X72490Y180973D01*
X73460Y181621D01*
X74284Y182446D01*
X74932Y183416D01*
X75379Y184493D01*
X75606Y185637D01*
Y186804D01*
X75379Y187948D01*
X75231Y188304D01*
X75655Y188587D01*
X140111Y124131D01*
D02*
G37*
%LPC*%
G36*
X69366Y177850D02*
X68429D01*
X67524Y177608D01*
X66712Y177139D01*
X66050Y176477D01*
X65581Y175665D01*
X65339Y174760D01*
Y173823D01*
X65581Y172918D01*
X66050Y172106D01*
X66712Y171443D01*
X67524Y170975D01*
X68429Y170732D01*
X69366D01*
X70271Y170975D01*
X71083Y171443D01*
X71746Y172106D01*
X72214Y172918D01*
X72457Y173823D01*
Y174760D01*
X72214Y175665D01*
X71746Y176477D01*
X71083Y177139D01*
X70271Y177608D01*
X69366Y177850D01*
D02*
G37*
G36*
X69882Y167712D02*
Y165276D01*
X72319D01*
X72214Y165665D01*
X71746Y166477D01*
X71083Y167139D01*
X70271Y167608D01*
X69882Y167712D01*
D02*
G37*
G36*
X67913D02*
X67524Y167608D01*
X66712Y167139D01*
X66050Y166477D01*
X65581Y165665D01*
X65477Y165276D01*
X67913D01*
Y167712D01*
D02*
G37*
G36*
X72319Y163307D02*
X69882D01*
Y160871D01*
X70271Y160975D01*
X71083Y161443D01*
X71746Y162106D01*
X72214Y162918D01*
X72319Y163307D01*
D02*
G37*
G36*
X67913D02*
X65477D01*
X65581Y162918D01*
X66050Y162106D01*
X66712Y161443D01*
X67524Y160975D01*
X67913Y160871D01*
Y163307D01*
D02*
G37*
G36*
X90626Y148323D02*
X89689D01*
X88784Y148080D01*
X87972Y147612D01*
X87309Y146949D01*
X86841Y146137D01*
X86598Y145232D01*
Y144295D01*
X86841Y143390D01*
X87309Y142578D01*
X87972Y141916D01*
X88784Y141447D01*
X89689Y141205D01*
X90626D01*
X91531Y141447D01*
X92343Y141916D01*
X93005Y142578D01*
X93474Y143390D01*
X93717Y144295D01*
Y145232D01*
X93474Y146137D01*
X93005Y146949D01*
X92343Y147612D01*
X91531Y148080D01*
X90626Y148323D01*
D02*
G37*
G36*
X49681D02*
X48744D01*
X47839Y148080D01*
X47027Y147612D01*
X46365Y146949D01*
X45896Y146137D01*
X45654Y145232D01*
Y144295D01*
X45896Y143390D01*
X46365Y142578D01*
X47027Y141916D01*
X47839Y141447D01*
X48744Y141205D01*
X49681D01*
X50586Y141447D01*
X51398Y141916D01*
X52061Y142578D01*
X52529Y143390D01*
X52772Y144295D01*
Y145232D01*
X52529Y146137D01*
X52061Y146949D01*
X51398Y147612D01*
X50586Y148080D01*
X49681Y148323D01*
D02*
G37*
G36*
X74213Y150247D02*
X64370D01*
X63338Y150111D01*
X62377Y149713D01*
X61551Y149079D01*
X60917Y148253D01*
X60519Y147292D01*
X60383Y146260D01*
Y140354D01*
X60519Y139322D01*
X60917Y138361D01*
X61551Y137535D01*
X62377Y136902D01*
X63338Y136503D01*
X64370Y136367D01*
X74213D01*
X75244Y136503D01*
X76206Y136902D01*
X77032Y137535D01*
X77665Y138361D01*
X78064Y139322D01*
X78199Y140354D01*
Y146260D01*
X78064Y147292D01*
X77665Y148253D01*
X77032Y149079D01*
X76206Y149713D01*
X75244Y150111D01*
X74213Y150247D01*
D02*
G37*
G36*
X50197Y138185D02*
Y135748D01*
X52634D01*
X52529Y136137D01*
X52061Y136949D01*
X51398Y137612D01*
X50586Y138080D01*
X50197Y138185D01*
D02*
G37*
G36*
X48228Y138185D02*
X47839Y138080D01*
X47027Y137612D01*
X46365Y136949D01*
X45896Y136137D01*
X45792Y135748D01*
X48228D01*
Y138185D01*
D02*
G37*
G36*
X91142Y138185D02*
Y135748D01*
X93578D01*
X93474Y136137D01*
X93005Y136949D01*
X92343Y137612D01*
X91531Y138080D01*
X91142Y138185D01*
D02*
G37*
G36*
X89173D02*
X88784Y138080D01*
X87972Y137612D01*
X87309Y136949D01*
X86841Y136137D01*
X86737Y135748D01*
X89173D01*
Y138185D01*
D02*
G37*
G36*
X52634Y133780D02*
X50197D01*
Y131343D01*
X50586Y131447D01*
X51398Y131916D01*
X52061Y132579D01*
X52529Y133390D01*
X52634Y133780D01*
D02*
G37*
G36*
X93578Y133780D02*
X91142D01*
Y131343D01*
X91531Y131447D01*
X92343Y131916D01*
X93005Y132579D01*
X93474Y133390D01*
X93578Y133780D01*
D02*
G37*
G36*
X89173D02*
X86737D01*
X86841Y133390D01*
X87309Y132579D01*
X87972Y131916D01*
X88784Y131447D01*
X89173Y131343D01*
Y133780D01*
D02*
G37*
G36*
X48228Y133780D02*
X45792D01*
X45896Y133390D01*
X46365Y132579D01*
X47027Y131916D01*
X47839Y131447D01*
X48228Y131343D01*
Y133780D01*
D02*
G37*
G36*
X70138Y132332D02*
X68734D01*
X67378Y131969D01*
X66163Y131267D01*
X65170Y130274D01*
X64468Y129059D01*
X64105Y127703D01*
Y126300D01*
X64468Y124944D01*
X65170Y123728D01*
X66163Y122736D01*
X67378Y122034D01*
X68734Y121671D01*
X70138D01*
X71493Y122034D01*
X72709Y122736D01*
X73702Y123728D01*
X74403Y124944D01*
X74766Y126300D01*
Y127703D01*
X74403Y129059D01*
X73702Y130274D01*
X72709Y131267D01*
X71493Y131969D01*
X70138Y132332D01*
D02*
G37*
G36*
X71335Y106984D02*
X70398D01*
X69492Y106742D01*
X68681Y106273D01*
X68018Y105611D01*
X67550Y104799D01*
X67307Y103894D01*
Y102957D01*
X67550Y102051D01*
X68018Y101240D01*
X68681Y100577D01*
X69492Y100109D01*
X70398Y99866D01*
X71335D01*
X72240Y100109D01*
X73051Y100577D01*
X73714Y101240D01*
X74183Y102051D01*
X74425Y102957D01*
Y103894D01*
X74183Y104799D01*
X73714Y105611D01*
X73051Y106273D01*
X72240Y106742D01*
X71335Y106984D01*
D02*
G37*
G36*
X108189Y101964D02*
Y99528D01*
X110626D01*
X110521Y99917D01*
X110053Y100729D01*
X109390Y101391D01*
X108579Y101860D01*
X108189Y101964D01*
D02*
G37*
G36*
X106220D02*
X105831Y101860D01*
X105019Y101391D01*
X104357Y100729D01*
X103888Y99917D01*
X103784Y99528D01*
X106220D01*
Y101964D01*
D02*
G37*
G36*
X35512Y101846D02*
Y99409D01*
X37948D01*
X37844Y99799D01*
X37376Y100610D01*
X36713Y101273D01*
X35901Y101742D01*
X35512Y101846D01*
D02*
G37*
G36*
X33543D02*
X33154Y101742D01*
X32342Y101273D01*
X31680Y100610D01*
X31211Y99799D01*
X31107Y99409D01*
X33543D01*
Y101846D01*
D02*
G37*
G36*
X110626Y97559D02*
X108189D01*
Y95122D01*
X108579Y95227D01*
X109390Y95695D01*
X110053Y96358D01*
X110521Y97170D01*
X110626Y97559D01*
D02*
G37*
G36*
X106220D02*
X103784D01*
X103888Y97170D01*
X104357Y96358D01*
X105019Y95695D01*
X105831Y95227D01*
X106220Y95122D01*
Y97559D01*
D02*
G37*
G36*
X37948Y97441D02*
X35512D01*
Y95004D01*
X35901Y95109D01*
X36713Y95577D01*
X37376Y96240D01*
X37844Y97051D01*
X37948Y97441D01*
D02*
G37*
G36*
X33543D02*
X31107D01*
X31211Y97051D01*
X31680Y96240D01*
X32342Y95577D01*
X33154Y95109D01*
X33543Y95004D01*
Y97441D01*
D02*
G37*
G36*
X117673Y102102D02*
X116736D01*
X115831Y101860D01*
X115019Y101391D01*
X114357Y100729D01*
X113888Y99917D01*
X113646Y99012D01*
Y98075D01*
X113888Y97170D01*
X114357Y96358D01*
X115019Y95695D01*
X115831Y95227D01*
X116736Y94984D01*
X117673D01*
X118579Y95227D01*
X119390Y95695D01*
X120053Y96358D01*
X120521Y97170D01*
X120764Y98075D01*
Y99012D01*
X120521Y99917D01*
X120053Y100729D01*
X119390Y101391D01*
X118579Y101860D01*
X117673Y102102D01*
D02*
G37*
G36*
X24996Y101984D02*
X24059D01*
X23154Y101742D01*
X22342Y101273D01*
X21680Y100610D01*
X21211Y99799D01*
X20968Y98894D01*
Y97957D01*
X21211Y97051D01*
X21680Y96240D01*
X22342Y95577D01*
X23154Y95109D01*
X24059Y94866D01*
X24996D01*
X25901Y95109D01*
X26713Y95577D01*
X27376Y96240D01*
X27844Y97051D01*
X28087Y97957D01*
Y98894D01*
X27844Y99799D01*
X27376Y100610D01*
X26713Y101273D01*
X25901Y101742D01*
X24996Y101984D01*
D02*
G37*
G36*
X71850Y96846D02*
Y94409D01*
X74287D01*
X74183Y94799D01*
X73714Y95610D01*
X73051Y96273D01*
X72240Y96742D01*
X71850Y96846D01*
D02*
G37*
G36*
X69882Y96846D02*
X69492Y96742D01*
X68681Y96273D01*
X68018Y95610D01*
X67550Y94799D01*
X67445Y94409D01*
X69882D01*
Y96846D01*
D02*
G37*
G36*
X74287Y92441D02*
X71850D01*
Y90004D01*
X72240Y90109D01*
X73051Y90577D01*
X73714Y91240D01*
X74183Y92051D01*
X74287Y92441D01*
D02*
G37*
G36*
X69882D02*
X67445D01*
X67550Y92051D01*
X68018Y91240D01*
X68681Y90577D01*
X69492Y90109D01*
X69882Y90004D01*
Y92441D01*
D02*
G37*
G36*
X98816Y82737D02*
X97412D01*
X96056Y82374D01*
X94841Y81672D01*
X93849Y80679D01*
X93147Y79464D01*
X92783Y78108D01*
Y76704D01*
X93147Y75349D01*
X93849Y74133D01*
X94841Y73141D01*
X96056Y72439D01*
X97412Y72075D01*
X98816D01*
X100172Y72439D01*
X101387Y73141D01*
X102380Y74133D01*
X103082Y75349D01*
X103445Y76704D01*
Y78108D01*
X103082Y79464D01*
X102380Y80679D01*
X101387Y81672D01*
X100172Y82374D01*
X98816Y82737D01*
D02*
G37*
G36*
X41450Y82595D02*
X40046D01*
X38690Y82231D01*
X37475Y81529D01*
X36482Y80537D01*
X35781Y79321D01*
X35417Y77966D01*
Y76562D01*
X35781Y75206D01*
X36482Y73991D01*
X37475Y72998D01*
X38690Y72296D01*
X40046Y71933D01*
X41450D01*
X42806Y72296D01*
X44021Y72998D01*
X45014Y73991D01*
X45715Y75206D01*
X46079Y76562D01*
Y77966D01*
X45715Y79321D01*
X45014Y80537D01*
X44021Y81529D01*
X42806Y82231D01*
X41450Y82595D01*
D02*
G37*
G36*
X73228Y69529D02*
X70866D01*
Y66142D01*
X76222D01*
Y66535D01*
X76120Y67310D01*
X75821Y68032D01*
X75345Y68653D01*
X74725Y69128D01*
X74003Y69428D01*
X73228Y69529D01*
D02*
G37*
G36*
X67716D02*
X65354D01*
X64579Y69428D01*
X63857Y69128D01*
X63237Y68653D01*
X62761Y68032D01*
X62462Y67310D01*
X62360Y66535D01*
Y66142D01*
X67716D01*
Y69529D01*
D02*
G37*
G36*
X18701Y62752D02*
Y60315D01*
X21137D01*
X21033Y60704D01*
X20564Y61516D01*
X19902Y62179D01*
X19090Y62647D01*
X18701Y62752D01*
D02*
G37*
G36*
X16732Y62752D02*
X16343Y62647D01*
X15531Y62179D01*
X14869Y61516D01*
X14400Y60704D01*
X14296Y60315D01*
X16732D01*
Y62752D01*
D02*
G37*
G36*
X76222Y62992D02*
X70866D01*
Y59604D01*
X73228D01*
X74003Y59706D01*
X74725Y60005D01*
X75345Y60481D01*
X75821Y61101D01*
X76120Y61823D01*
X76222Y62598D01*
Y62992D01*
D02*
G37*
G36*
X67716D02*
X62360D01*
Y62598D01*
X62462Y61823D01*
X62761Y61101D01*
X63237Y60481D01*
X63857Y60005D01*
X64579Y59706D01*
X65354Y59604D01*
X67716D01*
Y62992D01*
D02*
G37*
G36*
X130905Y61571D02*
Y59134D01*
X133342D01*
X133238Y59523D01*
X132769Y60335D01*
X132107Y60998D01*
X131295Y61466D01*
X130905Y61571D01*
D02*
G37*
G36*
X93504D02*
Y59134D01*
X95941D01*
X95836Y59523D01*
X95368Y60335D01*
X94705Y60998D01*
X93893Y61466D01*
X93504Y61571D01*
D02*
G37*
G36*
X128937D02*
X128548Y61466D01*
X127736Y60998D01*
X127073Y60335D01*
X126605Y59523D01*
X126500Y59134D01*
X128937D01*
Y61571D01*
D02*
G37*
G36*
X91535D02*
X91146Y61466D01*
X90334Y60998D01*
X89672Y60335D01*
X89203Y59523D01*
X89099Y59134D01*
X91535D01*
Y61571D01*
D02*
G37*
G36*
X56102D02*
Y59134D01*
X58539D01*
X58435Y59523D01*
X57966Y60335D01*
X57303Y60998D01*
X56492Y61466D01*
X56102Y61571D01*
D02*
G37*
G36*
X54134Y61571D02*
X53744Y61466D01*
X52933Y60998D01*
X52270Y60335D01*
X51802Y59523D01*
X51697Y59134D01*
X54134D01*
Y61571D01*
D02*
G37*
G36*
X16732Y58346D02*
X14296D01*
X14400Y57957D01*
X14869Y57145D01*
X15531Y56483D01*
X16343Y56014D01*
X16732Y55910D01*
Y58346D01*
D02*
G37*
G36*
X21137D02*
X18701D01*
Y55910D01*
X19090Y56014D01*
X19902Y56483D01*
X20564Y57145D01*
X21033Y57957D01*
X21137Y58346D01*
D02*
G37*
G36*
X58539Y57165D02*
X56102D01*
Y54729D01*
X56492Y54833D01*
X57303Y55302D01*
X57966Y55964D01*
X58435Y56776D01*
X58539Y57165D01*
D02*
G37*
G36*
X95941Y57165D02*
X93504D01*
Y54729D01*
X93893Y54833D01*
X94705Y55302D01*
X95368Y55964D01*
X95836Y56776D01*
X95941Y57165D01*
D02*
G37*
G36*
X133342D02*
X130905D01*
Y54729D01*
X131295Y54833D01*
X132107Y55302D01*
X132769Y55964D01*
X133238Y56776D01*
X133342Y57165D01*
D02*
G37*
G36*
X128937D02*
X126500D01*
X126605Y56776D01*
X127073Y55964D01*
X127736Y55302D01*
X128548Y54833D01*
X128937Y54729D01*
Y57165D01*
D02*
G37*
G36*
X91535D02*
X89099D01*
X89203Y56776D01*
X89672Y55964D01*
X90334Y55302D01*
X91146Y54833D01*
X91535Y54729D01*
Y57165D01*
D02*
G37*
G36*
X54134Y57165D02*
X51697D01*
X51802Y56776D01*
X52270Y55964D01*
X52933Y55302D01*
X53744Y54833D01*
X54134Y54729D01*
Y57165D01*
D02*
G37*
G36*
X18185Y52890D02*
X17248D01*
X16343Y52647D01*
X15531Y52179D01*
X14869Y51516D01*
X14400Y50704D01*
X14157Y49799D01*
Y48862D01*
X14400Y47957D01*
X14869Y47145D01*
X15531Y46483D01*
X16343Y46014D01*
X17248Y45772D01*
X18185D01*
X19090Y46014D01*
X19902Y46483D01*
X20564Y47145D01*
X21033Y47957D01*
X21276Y48862D01*
Y49799D01*
X21033Y50704D01*
X20564Y51516D01*
X19902Y52179D01*
X19090Y52647D01*
X18185Y52890D01*
D02*
G37*
G36*
X130390Y51709D02*
X129453D01*
X128548Y51466D01*
X127736Y50998D01*
X127073Y50335D01*
X126605Y49523D01*
X126362Y48618D01*
Y47681D01*
X126605Y46776D01*
X127073Y45964D01*
X127736Y45302D01*
X128548Y44833D01*
X129453Y44591D01*
X130390D01*
X131295Y44833D01*
X132107Y45302D01*
X132769Y45964D01*
X133238Y46776D01*
X133480Y47681D01*
Y48618D01*
X133238Y49523D01*
X132769Y50335D01*
X132107Y50998D01*
X131295Y51466D01*
X130390Y51709D01*
D02*
G37*
G36*
X92988D02*
X92051D01*
X91146Y51466D01*
X90334Y50998D01*
X89672Y50335D01*
X89203Y49523D01*
X88961Y48618D01*
Y47681D01*
X89203Y46776D01*
X89672Y45964D01*
X90334Y45302D01*
X91146Y44833D01*
X92051Y44591D01*
X92988D01*
X93893Y44833D01*
X94705Y45302D01*
X95368Y45964D01*
X95836Y46776D01*
X96079Y47681D01*
Y48618D01*
X95836Y49523D01*
X95368Y50335D01*
X94705Y50998D01*
X93893Y51466D01*
X92988Y51709D01*
D02*
G37*
G36*
X55587D02*
X54650D01*
X53744Y51466D01*
X52933Y50998D01*
X52270Y50335D01*
X51802Y49523D01*
X51559Y48618D01*
Y47681D01*
X51802Y46776D01*
X52270Y45964D01*
X52933Y45302D01*
X53744Y44833D01*
X54650Y44591D01*
X55587D01*
X56492Y44833D01*
X57303Y45302D01*
X57966Y45964D01*
X58435Y46776D01*
X58677Y47681D01*
Y48618D01*
X58435Y49523D01*
X57966Y50335D01*
X57303Y50998D01*
X56492Y51466D01*
X55587Y51709D01*
D02*
G37*
G36*
X78644Y11236D02*
X77655D01*
X76700Y10980D01*
X75843Y10486D01*
X75144Y9787D01*
X74650Y8930D01*
X74394Y7975D01*
Y6986D01*
X74650Y6031D01*
X75144Y5174D01*
X75843Y4475D01*
X76700Y3980D01*
X77655Y3724D01*
X78644D01*
X79599Y3980D01*
X80456Y4475D01*
X81155Y5174D01*
X81650Y6031D01*
X81906Y6986D01*
Y7975D01*
X81650Y8930D01*
X81155Y9787D01*
X80456Y10486D01*
X79599Y10980D01*
X78644Y11236D01*
D02*
G37*
G36*
X66833D02*
X65844D01*
X64889Y10980D01*
X64032Y10486D01*
X63333Y9787D01*
X62839Y8930D01*
X62583Y7975D01*
Y6986D01*
X62839Y6031D01*
X63333Y5174D01*
X64032Y4475D01*
X64889Y3980D01*
X65844Y3724D01*
X66833D01*
X67788Y3980D01*
X68645Y4475D01*
X69344Y5174D01*
X69839Y6031D01*
X70095Y6986D01*
Y7975D01*
X69839Y8930D01*
X69344Y9787D01*
X68645Y10486D01*
X67788Y10980D01*
X66833Y11236D01*
D02*
G37*
%LPD*%
D15*
X69685Y186221D02*
D03*
D16*
X69291Y143307D02*
D03*
D17*
Y64567D02*
D03*
D18*
X68898Y174291D02*
D03*
Y164291D02*
D03*
X49213Y144764D02*
D03*
Y134764D02*
D03*
X90158Y144764D02*
D03*
Y134764D02*
D03*
X24528Y98425D02*
D03*
X34528D02*
D03*
X70866Y103425D02*
D03*
Y93425D02*
D03*
X117205Y98543D02*
D03*
X107205D02*
D03*
X17717Y49331D02*
D03*
Y59331D02*
D03*
X55118Y48150D02*
D03*
Y58150D02*
D03*
X92520Y48150D02*
D03*
Y58150D02*
D03*
X129921Y48150D02*
D03*
Y58150D02*
D03*
D19*
X98114Y77406D02*
D03*
X40748Y77264D02*
D03*
X69436Y127001D02*
D03*
D20*
X78150Y7480D02*
D03*
X66339D02*
D03*
M02*
