G04*
G04 #@! TF.GenerationSoftware,Altium Limited,Altium Designer,23.0.1 (38)*
G04*
G04 Layer_Color=1930808*
%FSLAX25Y25*%
%MOIN*%
G70*
G04*
G04 #@! TF.SameCoordinates,5660EF31-3C45-4B7C-B7D5-7F86080B64AF*
G04*
G04*
G04 #@! TF.FilePolarity,Positive*
G04*
G01*
G75*
%ADD11C,0.00394*%
%ADD31C,0.01181*%
%ADD32C,0.00787*%
D11*
X78654Y169291D02*
G03*
X78654Y169291I-9757J0D01*
G01*
X58969Y139764D02*
G03*
X58969Y139764I-9757J0D01*
G01*
X99914D02*
G03*
X99914Y139764I-9757J0D01*
G01*
X39284Y98425D02*
G03*
X39284Y98425I-9757J0D01*
G01*
X80623D02*
G03*
X80623Y98425I-9757J0D01*
G01*
X121961Y98543D02*
G03*
X121961Y98543I-9757J0D01*
G01*
X27473Y54331D02*
G03*
X27473Y54331I-9757J0D01*
G01*
X64875Y53150D02*
G03*
X64875Y53150I-9757J0D01*
G01*
X102276D02*
G03*
X102276Y53150I-9757J0D01*
G01*
X139678D02*
G03*
X139678Y53150I-9757J0D01*
G01*
X27756Y135925D02*
X34449D01*
X27756D02*
Y146752D01*
X34449Y135925D02*
Y146752D01*
X27756D02*
X34449D01*
X78937Y165453D02*
X85630D01*
X78937D02*
Y176279D01*
X85630Y165453D02*
Y176279D01*
X78937D02*
X85630D01*
X106544Y135925D02*
X113237D01*
X106544D02*
Y146752D01*
X113237Y135925D02*
Y146752D01*
X106544D02*
X113237D01*
X134941Y89567D02*
Y96260D01*
X124114Y89567D02*
X134941D01*
X124114Y96260D02*
X134941D01*
X124114Y89567D02*
Y96260D01*
X134941Y100591D02*
Y107283D01*
X124114Y100591D02*
X134941D01*
X124114Y107283D02*
X134941D01*
X124114Y100591D02*
Y107283D01*
X6791Y95079D02*
Y101772D01*
X17618D01*
X6791Y95079D02*
X17618D01*
Y101772D01*
X65157Y24508D02*
X71850D01*
X65157D02*
Y35335D01*
X71850Y24508D02*
Y35335D01*
X65157D02*
X71850D01*
X55315Y24508D02*
X62008D01*
X55315D02*
Y35335D01*
X62008Y24508D02*
Y35335D01*
X55315D02*
X62008D01*
X75000Y24508D02*
X81693D01*
X75000D02*
Y35335D01*
X81693Y24508D02*
Y35335D01*
X75000D02*
X81693D01*
X84842Y24508D02*
X91535D01*
X84842D02*
Y35335D01*
X91535Y24508D02*
Y35335D01*
X84842D02*
X91535D01*
D31*
X19094Y152953D02*
X118898D01*
Y44980D02*
Y152953D01*
X19094Y44980D02*
X118898D01*
X19094D02*
Y152953D01*
D32*
X55020Y18209D02*
X89370D01*
X55020Y-5217D02*
Y18209D01*
Y-5217D02*
X89370D01*
Y18209D01*
X63386Y170865D02*
Y167717D01*
X65485D01*
X68634Y170865D02*
X66534D01*
Y167717D01*
X68634D01*
X66534Y169291D02*
X67584D01*
X69683Y170865D02*
Y167717D01*
X71257D01*
X71782Y168241D01*
Y170340D01*
X71257Y170865D01*
X69683D01*
X72832Y167717D02*
X73881D01*
X73356D01*
Y170865D01*
X72832Y170340D01*
X80315Y168504D02*
X84251D01*
Y170472D01*
X83595Y171128D01*
X82283D01*
X81627Y170472D01*
Y168504D01*
Y169816D02*
X80315Y171128D01*
Y172440D02*
Y173752D01*
Y173096D01*
X84251D01*
X83595Y172440D01*
X42520Y141731D02*
Y138583D01*
X44619D01*
X47767Y141731D02*
X45668D01*
Y138583D01*
X47767D01*
X45668Y140157D02*
X46718D01*
X48817Y141731D02*
Y138583D01*
X50391D01*
X50916Y139107D01*
Y141207D01*
X50391Y141731D01*
X48817D01*
X54065Y138583D02*
X51965D01*
X54065Y140682D01*
Y141207D01*
X53540Y141731D01*
X52490D01*
X51965Y141207D01*
X29134Y137795D02*
X33070D01*
Y139763D01*
X32414Y140419D01*
X31102D01*
X30446Y139763D01*
Y137795D01*
Y139107D02*
X29134Y140419D01*
Y144355D02*
Y141731D01*
X31758Y144355D01*
X32414D01*
X33070Y143699D01*
Y142387D01*
X32414Y141731D01*
X85039Y140944D02*
Y137795D01*
X87138D01*
X90287Y140944D02*
X88188D01*
Y137795D01*
X90287D01*
X88188Y139370D02*
X89237D01*
X91337Y140944D02*
Y137795D01*
X92911D01*
X93436Y138320D01*
Y140419D01*
X92911Y140944D01*
X91337D01*
X94485Y140419D02*
X95010Y140944D01*
X96059D01*
X96584Y140419D01*
Y139894D01*
X96059Y139370D01*
X95535D01*
X96059D01*
X96584Y138845D01*
Y138320D01*
X96059Y137795D01*
X95010D01*
X94485Y138320D01*
X107874Y137795D02*
X111810D01*
Y139763D01*
X111154Y140419D01*
X109842D01*
X109186Y139763D01*
Y137795D01*
Y139107D02*
X107874Y140419D01*
X111154Y141731D02*
X111810Y142387D01*
Y143699D01*
X111154Y144355D01*
X110498D01*
X109842Y143699D01*
Y143043D01*
Y143699D01*
X109186Y144355D01*
X108530D01*
X107874Y143699D01*
Y142387D01*
X108530Y141731D01*
X23228Y99605D02*
Y96457D01*
X25327D01*
X28476Y99605D02*
X26377D01*
Y96457D01*
X28476D01*
X26377Y98031D02*
X27426D01*
X29526Y99605D02*
Y96457D01*
X31100D01*
X31625Y96982D01*
Y99080D01*
X31100Y99605D01*
X29526D01*
X34248Y96457D02*
Y99605D01*
X32674Y98031D01*
X34773D01*
X15354Y96457D02*
Y100392D01*
X13386D01*
X12731Y99736D01*
Y98425D01*
X13386Y97769D01*
X15354D01*
X14042D02*
X12731Y96457D01*
X9451D02*
Y100392D01*
X11419Y98425D01*
X8795D01*
X11417Y56298D02*
Y53150D01*
X13516D01*
X16665Y56298D02*
X14566D01*
Y53150D01*
X16665D01*
X14566Y54724D02*
X15615D01*
X17715Y56298D02*
Y53150D01*
X19289D01*
X19814Y53674D01*
Y55773D01*
X19289Y56298D01*
X17715D01*
X20863D02*
X22962D01*
Y55773D01*
X20863Y53674D01*
Y53150D01*
X49213Y54330D02*
Y51181D01*
X51312D01*
X54460Y54330D02*
X52361D01*
Y51181D01*
X54460D01*
X52361Y52755D02*
X53411D01*
X55510Y54330D02*
Y51181D01*
X57084D01*
X57609Y51706D01*
Y53805D01*
X57084Y54330D01*
X55510D01*
X58658Y53805D02*
X59183Y54330D01*
X60233D01*
X60757Y53805D01*
Y53280D01*
X60233Y52755D01*
X60757Y52231D01*
Y51706D01*
X60233Y51181D01*
X59183D01*
X58658Y51706D01*
Y52231D01*
X59183Y52755D01*
X58658Y53280D01*
Y53805D01*
X59183Y52755D02*
X60233D01*
X86614Y54330D02*
Y51181D01*
X88713D01*
X91862Y54330D02*
X89763D01*
Y51181D01*
X91862D01*
X89763Y52755D02*
X90812D01*
X92911Y54330D02*
Y51181D01*
X94486D01*
X95010Y51706D01*
Y53805D01*
X94486Y54330D01*
X92911D01*
X96060Y51706D02*
X96585Y51181D01*
X97634D01*
X98159Y51706D01*
Y53805D01*
X97634Y54330D01*
X96585D01*
X96060Y53805D01*
Y53280D01*
X96585Y52755D01*
X98159D01*
X82678Y110433D02*
X86614D01*
Y108465D01*
X85958Y107809D01*
X85302D01*
X84646Y108465D01*
Y110433D01*
Y108465D01*
X83990Y107809D01*
X83334D01*
X82678Y108465D01*
Y110433D01*
Y106497D02*
Y103874D01*
Y105185D01*
X86614D01*
Y102562D02*
Y101250D01*
Y101906D01*
X82678D01*
X83334Y102562D01*
X106693Y99605D02*
Y96457D01*
X108792D01*
X111941Y99605D02*
X109842D01*
Y96457D01*
X111941D01*
X109842Y98031D02*
X110891D01*
X112990Y99605D02*
Y96457D01*
X114564D01*
X115089Y96982D01*
Y99080D01*
X114564Y99605D01*
X112990D01*
X118238D02*
X117188Y99080D01*
X116139Y98031D01*
Y96982D01*
X116663Y96457D01*
X117713D01*
X118238Y96982D01*
Y97506D01*
X117713Y98031D01*
X116139D01*
X133071Y101969D02*
Y105904D01*
X131103D01*
X130447Y105248D01*
Y103936D01*
X131103Y103280D01*
X133071D01*
X131759D02*
X130447Y101969D01*
X126511Y105904D02*
X129135D01*
Y103936D01*
X127823Y104592D01*
X127167D01*
X126511Y103936D01*
Y102624D01*
X127167Y101969D01*
X128479D01*
X129135Y102624D01*
X132677Y90945D02*
Y94881D01*
X130709D01*
X130053Y94225D01*
Y92913D01*
X130709Y92257D01*
X132677D01*
X131365D02*
X130053Y90945D01*
X126118Y94881D02*
X127429Y94225D01*
X128741Y92913D01*
Y91601D01*
X128085Y90945D01*
X126774D01*
X126118Y91601D01*
Y92257D01*
X126774Y92913D01*
X128741D01*
X122441Y55117D02*
Y51968D01*
X124540D01*
X127689Y55117D02*
X125590D01*
Y51968D01*
X127689D01*
X125590Y53543D02*
X126639D01*
X128738Y55117D02*
Y51968D01*
X130312D01*
X130837Y52493D01*
Y54592D01*
X130312Y55117D01*
X128738D01*
X131887Y51968D02*
X132936D01*
X132412D01*
Y55117D01*
X131887Y54592D01*
X134511D02*
X135035Y55117D01*
X136085D01*
X136610Y54592D01*
Y52493D01*
X136085Y51968D01*
X135035D01*
X134511Y52493D01*
Y54592D01*
X86614Y25984D02*
X89763D01*
Y27558D01*
X89238Y28083D01*
X88188D01*
X87664Y27558D01*
Y25984D01*
Y27034D02*
X86614Y28083D01*
Y29133D02*
Y30182D01*
Y29658D01*
X89763D01*
X89238Y29133D01*
Y31757D02*
X89763Y32281D01*
Y33331D01*
X89238Y33856D01*
X87139D01*
X86614Y33331D01*
Y32281D01*
X87139Y31757D01*
X89238D01*
X76378Y26772D02*
X80314D01*
Y28740D01*
X79658Y29395D01*
X78346D01*
X77690Y28740D01*
Y26772D01*
Y28084D02*
X76378Y29395D01*
X77034Y30707D02*
X76378Y31363D01*
Y32675D01*
X77034Y33331D01*
X79658D01*
X80314Y32675D01*
Y31363D01*
X79658Y30707D01*
X79002D01*
X78346Y31363D01*
Y33331D01*
X66535Y26378D02*
X70471D01*
Y28346D01*
X69815Y29002D01*
X68503D01*
X67847Y28346D01*
Y26378D01*
Y27690D02*
X66535Y29002D01*
X69815Y30314D02*
X70471Y30970D01*
Y32282D01*
X69815Y32937D01*
X69159D01*
X68503Y32282D01*
X67847Y32937D01*
X67191D01*
X66535Y32282D01*
Y30970D01*
X67191Y30314D01*
X67847D01*
X68503Y30970D01*
X69159Y30314D01*
X69815D01*
X68503Y30970D02*
Y32282D01*
X56693Y26772D02*
X60629D01*
Y28740D01*
X59973Y29395D01*
X58661D01*
X58005Y28740D01*
Y26772D01*
Y28084D02*
X56693Y29395D01*
X60629Y30707D02*
Y33331D01*
X59973D01*
X57349Y30707D01*
X56693D01*
X75329Y8398D02*
X75985Y9054D01*
X77297D01*
X77953Y8398D01*
Y7742D01*
X77297Y7086D01*
X75985D01*
X75329Y6430D01*
Y5774D01*
X75985Y5118D01*
X77297D01*
X77953Y5774D01*
X74017Y9054D02*
Y5118D01*
X72705Y6430D01*
X71393Y5118D01*
Y9054D01*
X70081Y5118D02*
X68769D01*
X69425D01*
Y9054D01*
X70081Y8398D01*
X64567Y100393D02*
Y97244D01*
X66666D01*
X69815Y100393D02*
X67716D01*
Y97244D01*
X69815D01*
X67716Y98818D02*
X68765D01*
X70864Y100393D02*
Y97244D01*
X72438D01*
X72963Y97769D01*
Y99868D01*
X72438Y100393D01*
X70864D01*
X76112D02*
X74013D01*
Y98818D01*
X75062Y99343D01*
X75587D01*
X76112Y98818D01*
Y97769D01*
X75587Y97244D01*
X74537D01*
X74013Y97769D01*
M02*
