G04*
G04 #@! TF.GenerationSoftware,Altium Limited,Altium Designer,23.0.1 (38)*
G04*
G04 Layer_Color=255*
%FSLAX25Y25*%
%MOIN*%
G70*
G04*
G04 #@! TF.SameCoordinates,5660EF31-3C45-4B7C-B7D5-7F86080B64AF*
G04*
G04*
G04 #@! TF.FilePolarity,Positive*
G04*
G01*
G75*
G04:AMPARAMS|DCode=16|XSize=157.48mil|YSize=118.11mil|CornerRadius=29.53mil|HoleSize=0mil|Usage=FLASHONLY|Rotation=180.000|XOffset=0mil|YOffset=0mil|HoleType=Round|Shape=RoundedRectangle|*
%AMROUNDEDRECTD16*
21,1,0.15748,0.05906,0,0,180.0*
21,1,0.09843,0.11811,0,0,180.0*
1,1,0.05906,-0.04921,0.02953*
1,1,0.05906,0.04921,0.02953*
1,1,0.05906,0.04921,-0.02953*
1,1,0.05906,-0.04921,-0.02953*
%
%ADD16ROUNDEDRECTD16*%
G04:AMPARAMS|DCode=17|XSize=118.11mil|YSize=78.74mil|CornerRadius=19.68mil|HoleSize=0mil|Usage=FLASHONLY|Rotation=180.000|XOffset=0mil|YOffset=0mil|HoleType=Round|Shape=RoundedRectangle|*
%AMROUNDEDRECTD17*
21,1,0.11811,0.03937,0,0,180.0*
21,1,0.07874,0.07874,0,0,180.0*
1,1,0.03937,-0.03937,0.01968*
1,1,0.03937,0.03937,0.01968*
1,1,0.03937,0.03937,-0.01968*
1,1,0.03937,-0.03937,-0.01968*
%
%ADD17ROUNDEDRECTD17*%
%ADD18C,0.05118*%
D16*
X69291Y143307D02*
D03*
D17*
Y64567D02*
D03*
D18*
X68898Y174291D02*
D03*
Y164291D02*
D03*
X49213Y144764D02*
D03*
Y134764D02*
D03*
X90158Y144764D02*
D03*
Y134764D02*
D03*
X24528Y98425D02*
D03*
X34528D02*
D03*
X70866Y103425D02*
D03*
Y93425D02*
D03*
X117205Y98543D02*
D03*
X107205D02*
D03*
X17717Y49331D02*
D03*
Y59331D02*
D03*
X55118Y48150D02*
D03*
Y58150D02*
D03*
X92520Y48150D02*
D03*
Y58150D02*
D03*
X129921Y48150D02*
D03*
Y58150D02*
D03*
M02*
