M48
;Layer_Color=9474304
;FILE_FORMAT=4:4
METRIC,TZ
;TYPE=PLATED
T1F00S00C0.8000
T4F00S00C1.5000
T5F00S00C1.6000
%
T01
X168500Y19000
X198500
X330000Y122300
Y147700
X297700Y250300
X272300
X180000Y262700
Y237300
X87700Y250000
X62300
X45000Y150700
Y125300
X140000Y122300
Y147700
X235000
Y122300
X229000Y342300
Y367700
X175000Y417300
X125000Y367700
Y342300
X175000Y442700
T04
X177000Y473000
T05
X103500Y196250
X249210Y196612
X176367Y322583
M30
