G04*
G04 #@! TF.GenerationSoftware,Altium Limited,Altium Designer,23.0.1 (38)*
G04*
G04 Layer_Color=128*
%FSLAX25Y25*%
%MOIN*%
G70*
G04*
G04 #@! TF.SameCoordinates,5660EF31-3C45-4B7C-B7D5-7F86080B64AF*
G04*
G04*
G04 #@! TF.FilePolarity,Positive*
G04*
G01*
G75*
%ADD33C,0.00500*%
D33*
X66929Y143307D02*
X71653D01*
X69291Y140945D02*
Y145669D01*
X67323Y64567D02*
X71260D01*
X69291Y62598D02*
Y66535D01*
X67323Y174291D02*
X70472D01*
X68898Y172716D02*
Y175866D01*
X67323Y164291D02*
X70472D01*
X68898Y162716D02*
Y165866D01*
X47638Y144764D02*
X50787D01*
X49213Y143189D02*
Y146339D01*
X47638Y134764D02*
X50787D01*
X49213Y133189D02*
Y136339D01*
X88583Y144764D02*
X91732D01*
X90158Y143189D02*
Y146339D01*
X88583Y134764D02*
X91732D01*
X90158Y133189D02*
Y136339D01*
X22953Y98425D02*
X26102D01*
X24528Y96850D02*
Y100000D01*
X32953Y98425D02*
X36102D01*
X34528Y96850D02*
Y100000D01*
X69291Y103425D02*
X72441D01*
X70866Y101850D02*
Y105000D01*
X69291Y93425D02*
X72441D01*
X70866Y91850D02*
Y95000D01*
X115630Y98543D02*
X118780D01*
X117205Y96969D02*
Y100118D01*
X105630Y98543D02*
X108780D01*
X107205Y96969D02*
Y100118D01*
X16142Y49331D02*
X19291D01*
X17717Y47756D02*
Y50906D01*
X16142Y59331D02*
X19291D01*
X17717Y57756D02*
Y60905D01*
X53543Y48150D02*
X56693D01*
X55118Y46575D02*
Y49724D01*
X53543Y58150D02*
X56693D01*
X55118Y56575D02*
Y59724D01*
X90945Y48150D02*
X94095D01*
X92520Y46575D02*
Y49724D01*
X90945Y58150D02*
X94095D01*
X92520Y56575D02*
Y59724D01*
X128347Y48150D02*
X131496D01*
X129921Y46575D02*
Y49724D01*
X128347Y58150D02*
X131496D01*
X129921Y56575D02*
Y59724D01*
X66732Y186221D02*
X72638D01*
X69685Y183268D02*
Y189173D01*
X94964Y77406D02*
X101264D01*
X98114Y74257D02*
Y80556D01*
X37598Y77264D02*
X43898D01*
X40748Y74114D02*
Y80413D01*
X66286Y127001D02*
X72585D01*
X69436Y123852D02*
Y130151D01*
X76575Y7480D02*
X79724D01*
X78150Y5906D02*
Y9055D01*
X64764Y7480D02*
X67913D01*
X66339Y5906D02*
Y9055D01*
M02*
